<svg xmlns="http://www.w3.org/2000/svg" width="1200" height="630" viewBox="0 0 1200 630">
  <defs>
    <linearGradient id="bg-gradient" x1="0%" y1="0%" x2="100%" y2="100%">
      <stop offset="0%" stop-color="#0f2557" />
      <stop offset="100%" stop-color="#1e40af" />
    </linearGradient>
    <filter id="shadow" x="-20%" y="-20%" width="140%" height="140%">
      <feDropShadow dx="0" dy="4" stdDeviation="8" flood-opacity="0.3" />
    </filter>
  </defs>
  
  <!-- Background -->
  <rect width="1200" height="630" fill="url(#bg-gradient)" />
  
  <!-- Buildings Silhouette -->
  <g opacity="0.2" transform="translate(0, 180)">
    <!-- Skyscraper 1 -->
    <rect x="100" y="50" width="80" height="400" fill="white" />
    <rect x="110" y="70" width="60" height="20" fill="#0f2557" />
    <rect x="110" y="110" width="60" height="20" fill="#0f2557" />
    <rect x="110" y="150" width="60" height="20" fill="#0f2557" />
    <rect x="110" y="190" width="60" height="20" fill="#0f2557" />
    <rect x="110" y="230" width="60" height="20" fill="#0f2557" />
    <rect x="110" y="270" width="60" height="20" fill="#0f2557" />
    <rect x="110" y="310" width="60" height="20" fill="#0f2557" />
    <rect x="110" y="350" width="60" height="20" fill="#0f2557" />
    <rect x="110" y="390" width="60" height="20" fill="#0f2557" />
    <polygon points="100,50 180,50 140,10" fill="white" />
    
    <!-- Skyscraper 2 -->
    <rect x="210" y="150" width="100" height="300" fill="white" />
    <rect x="220" y="170" width="80" height="15" fill="#0f2557" />
    <rect x="220" y="205" width="80" height="15" fill="#0f2557" />
    <rect x="220" y="240" width="80" height="15" fill="#0f2557" />
    <rect x="220" y="275" width="80" height="15" fill="#0f2557" />
    <rect x="220" y="310" width="80" height="15" fill="#0f2557" />
    <rect x="220" y="345" width="80" height="15" fill="#0f2557" />
    <rect x="220" y="380" width="80" height="15" fill="#0f2557" />
    <rect x="220" y="415" width="80" height="15" fill="#0f2557" />
    <polygon points="210,150 310,150 260,100" fill="white" />
    
    <!-- Skyscraper 3 -->
    <rect x="340" y="120" width="120" height="330" fill="white" />
    <rect x="350" y="140" width="100" height="20" fill="#0f2557" />
    <rect x="350" y="180" width="100" height="20" fill="#0f2557" />
    <rect x="350" y="220" width="100" height="20" fill="#0f2557" />
    <rect x="350" y="260" width="100" height="20" fill="#0f2557" />
    <rect x="350" y="300" width="100" height="20" fill="#0f2557" />
    <rect x="350" y="340" width="100" height="20" fill="#0f2557" />
    <rect x="350" y="380" width="100" height="20" fill="#0f2557" />
    <rect x="350" y="420" width="100" height="20" fill="#0f2557" />
    <polygon points="340,120 460,120 400,70" fill="white" />
    
    <!-- Skyscraper 4 -->
    <rect x="490" y="80" width="140" height="370" fill="white" />
    <rect x="505" y="100" width="110" height="25" fill="#0f2557" />
    <rect x="505" y="145" width="110" height="25" fill="#0f2557" />
    <rect x="505" y="190" width="110" height="25" fill="#0f2557" />
    <rect x="505" y="235" width="110" height="25" fill="#0f2557" />
    <rect x="505" y="280" width="110" height="25" fill="#0f2557" />
    <rect x="505" y="325" width="110" height="25" fill="#0f2557" />
    <rect x="505" y="370" width="110" height="25" fill="#0f2557" />
    <rect x="505" y="415" width="110" height="25" fill="#0f2557" />
    <polygon points="490,80 630,80 560,20" fill="white" />
    
    <!-- Skyscraper 5 -->
    <rect x="660" y="100" width="130" height="350" fill="white" />
    <rect x="675" y="120" width="100" height="22" fill="#0f2557" />
    <rect x="675" y="162" width="100" height="22" fill="#0f2557" />
    <rect x="675" y="204" width="100" height="22" fill="#0f2557" />
    <rect x="675" y="246" width="100" height="22" fill="#0f2557" />
    <rect x="675" y="288" width="100" height="22" fill="#0f2557" />
    <rect x="675" y="330" width="100" height="22" fill="#0f2557" />
    <rect x="675" y="372" width="100" height="22" fill="#0f2557" />
    <rect x="675" y="414" width="100" height="22" fill="#0f2557" />
    <polygon points="660,100 790,100 725,40" fill="white" />
    
    <!-- Skyscraper 6 -->
    <rect x="820" y="140" width="90" height="310" fill="white" />
    <rect x="830" y="160" width="70" height="20" fill="#0f2557" />
    <rect x="830" y="200" width="70" height="20" fill="#0f2557" />
    <rect x="830" y="240" width="70" height="20" fill="#0f2557" />
    <rect x="830" y="280" width="70" height="20" fill="#0f2557" />
    <rect x="830" y="320" width="70" height="20" fill="#0f2557" />
    <rect x="830" y="360" width="70" height="20" fill="#0f2557" />
    <rect x="830" y="400" width="70" height="20" fill="#0f2557" />
    <polygon points="820,140 910,140 865,90" fill="white" />
    
    <!-- Skyscraper 7 -->
    <rect x="930" y="170" width="100" height="280" fill="white" />
    <rect x="940" y="190" width="80" height="18" fill="#0f2557" />
    <rect x="940" y="228" width="80" height="18" fill="#0f2557" />
    <rect x="940" y="266" width="80" height="18" fill="#0f2557" />
    <rect x="940" y="304" width="80" height="18" fill="#0f2557" />
    <rect x="940" y="342" width="80" height="18" fill="#0f2557" />
    <rect x="940" y="380" width="80" height="18" fill="#0f2557" />
    <rect x="940" y="418" width="80" height="18" fill="#0f2557" />
    <polygon points="930,170 1030,170 980,120" fill="white" />
    
    <!-- Skyscraper 8 -->
    <rect x="1060" y="190" width="70" height="260" fill="white" />
    <rect x="1070" y="210" width="50" height="15" fill="#0f2557" />
    <rect x="1070" y="245" width="50" height="15" fill="#0f2557" />
    <rect x="1070" y="280" width="50" height="15" fill="#0f2557" />
    <rect x="1070" y="315" width="50" height="15" fill="#0f2557" />
    <rect x="1070" y="350" width="50" height="15" fill="#0f2557" />
    <rect x="1070" y="385" width="50" height="15" fill="#0f2557" />
    <rect x="1070" y="420" width="50" height="15" fill="#0f2557" />
    <polygon points="1060,190 1130,190 1095,150" fill="white" />
  </g>
  
  <!-- Content Panel -->
  <rect x="200" y="100" width="800" height="430" rx="20" fill="rgba(255, 255, 255, 0.95)" filter="url(#shadow)" />
  
  <!-- Calculator icon -->
  <g transform="translate(600, 170)">
    <rect width="100" height="100" x="-50" y="-50" rx="20" fill="#1e40af" />
    <g fill="white">
      <rect x="-30" y="-30" width="60" height="15" rx="2" />
      <rect x="-30" y="-5" width="15" height="15" rx="2" />
      <rect x="-5" y="-5" width="15" height="15" rx="2" />
      <rect x="20" y="-5" width="15" height="15" rx="2" />
      <rect x="-30" y="20" width="15" height="15" rx="2" />
      <rect x="-5" y="20" width="15" height="15" rx="2" />
      <rect x="20" y="20" width="15" height="15" rx="2" />
    </g>
  </g>
  
  <!-- Title -->
  <text x="600" y="260" font-family="Arial, sans-serif" font-size="56" font-weight="800" fill="#0f2557" text-anchor="middle" filter="url(#shadow)">FIBRA Investment Calculator</text>
  
  <!-- Subtitle -->
  <text x="600" y="320" font-family="Arial, sans-serif" font-size="28" font-weight="400" fill="#1e40af" text-anchor="middle">Analyze REIT &amp; FIBRA investments with advanced metrics</text>
  
  <!-- Features -->
  <g transform="translate(340, 380)">
    <rect width="240" height="50" rx="25" fill="#eef2ff" />
    <svg x="20" y="13" width="24" height="24" viewBox="0 0 24 24" fill="none" stroke="#1e40af" stroke-width="2" stroke-linecap="round" stroke-linejoin="round">
      <path d="M3 3v18h18"/>
      <path d="M18.4 9l-6-6-9 9"/>
      <path d="M5.5 13.5L11 8l5 5 4-4"/>
    </svg>
    <text x="54" y="33" font-family="Arial, sans-serif" font-size="18" fill="#1e40af">Investment Analysis</text>
  </g>
  
  <g transform="translate(620, 380)">
    <rect width="280" height="50" rx="25" fill="#eef2ff" />
    <svg x="20" y="13" width="24" height="24" viewBox="0 0 24 24" fill="none" stroke="#1e40af" stroke-width="2" stroke-linecap="round" stroke-linejoin="round">
      <rect x="2" y="3" width="20" height="14" rx="2" ry="2"/>
      <line x1="8" y1="21" x2="16" y2="21"/>
      <line x1="12" y1="17" x2="12" y2="21"/>
    </svg>
    <text x="54" y="33" font-family="Arial, sans-serif" font-size="18" fill="#1e40af">Cross-Border Investments</text>
  </g>
  
  <!-- Domain -->
  <text x="600" y="460" font-family="Arial, sans-serif" font-size="32" font-weight="600" fill="#0f2557" text-anchor="middle">fibra.lat</text>
  
  <!-- Author credit -->
  <text x="600" y="500" font-family="Arial, sans-serif" font-size="16" fill="#1e40af" text-anchor="middle">Created by Alberto Saco Puntriano</text>
</svg> 